<?xml version="1.0" encoding="UTF-8" standalone="no"?>
<svg
   xmlns:dc="http://purl.org/dc/elements/1.1/"
   xmlns:cc="http://creativecommons.org/ns#"
   xmlns:rdf="http://www.w3.org/1999/02/22-rdf-syntax-ns#"
   xmlns:svg="http://www.w3.org/2000/svg"
   xmlns="http://www.w3.org/2000/svg"
   xmlns:sodipodi="http://sodipodi.sourceforge.net/DTD/sodipodi-0.dtd"
   xmlns:inkscape="http://www.inkscape.org/namespaces/inkscape"
   width="102.613"
   height="54.002"
   viewBox="0 0 102.613 54.002"
   version="1.1"
   id="svg51"
   sodipodi:docname="logo.svg"
   inkscape:version="0.92.4 (5da689c313, 2019-01-14)">
  <metadata
     id="metadata55">
    <rdf:RDF>
      <cc:Work
         rdf:about="">
        <dc:format>image/svg+xml</dc:format>
        <dc:type
           rdf:resource="http://purl.org/dc/dcmitype/StillImage" />
      </cc:Work>
    </rdf:RDF>
  </metadata>
  <sodipodi:namedview
     pagecolor="#ffffff"
     bordercolor="#666666"
     borderopacity="1"
     objecttolerance="10"
     gridtolerance="10"
     guidetolerance="10"
     inkscape:pageopacity="0"
     inkscape:pageshadow="2"
     inkscape:window-width="1920"
     inkscape:window-height="1057"
     id="namedview53"
     showgrid="false"
     inkscape:zoom="4.7823581"
     inkscape:cx="10.459212"
     inkscape:cy="30.994317"
     inkscape:window-x="-8"
     inkscape:window-y="-8"
     inkscape:window-maximized="1"
     inkscape:current-layer="svg51" />
  <defs
     id="defs35">
    <filter
       id="Rectangle_484"
       x="0"
       y="47.002"
       width="94"
       height="7"
       filterUnits="userSpaceOnUse">
      <feOffset
         dy="3"
         input="SourceAlpha"
         id="feOffset2" />
      <feGaussianBlur
         stdDeviation="1"
         result="blur"
         id="feGaussianBlur4" />
      <feFlood
         flood-opacity="0.161"
         id="feFlood6" />
      <feComposite
         operator="in"
         in2="blur"
         id="feComposite8"
         result="result1" />
      <feComposite
         in="SourceGraphic"
         in2="result1"
         id="feComposite10" />
    </filter>
    <filter
       id="path815"
       x="2"
       y="0"
       width="50.406"
       height="49.823"
       filterUnits="userSpaceOnUse">
      <feOffset
         dx="10"
         dy="3"
         input="SourceAlpha"
         id="feOffset13" />
      <feGaussianBlur
         stdDeviation="1"
         result="blur-2"
         id="feGaussianBlur15" />
      <feFlood
         flood-opacity="0.161"
         id="feFlood17" />
      <feComposite
         operator="in"
         in2="blur-2"
         id="feComposite19"
         result="result1" />
      <feComposite
         in="SourceGraphic"
         in2="result1"
         id="feComposite21" />
    </filter>
    <filter
       id="path850"
       x="45.816"
       y="0.009"
       width="56.797"
       height="49.81"
       filterUnits="userSpaceOnUse">
      <feOffset
         dx="10"
         dy="3"
         input="SourceAlpha"
         id="feOffset24" />
      <feGaussianBlur
         stdDeviation="1"
         result="blur-3"
         id="feGaussianBlur26" />
      <feFlood
         flood-opacity="0.161"
         id="feFlood28" />
      <feComposite
         operator="in"
         in2="blur-3"
         id="feComposite30"
         result="result1" />
      <feComposite
         in="SourceGraphic"
         in2="result1"
         id="feComposite32" />
    </filter>
  </defs>
  <g
     id="Group_31"
     data-name="Group 31"
     transform="translate(-18 -11.998)"
     inkscape:export-xdpi="1092"
     inkscape:export-ydpi="1092">
    <g
       transform="matrix(1, 0, 0, 1, 18, 12)"
       filter="url(#Rectangle_484)"
       id="g38">
      <rect
         id="Rectangle_484-2"
         data-name="Rectangle 484"
         width="88"
         height="1"
         rx="0.5"
         transform="translate(3 47)"
         fill="#bdbdbd" />
    </g>
    <g
       transform="matrix(1, 0, 0, 1, 18, 12)"
       filter="url(#path815)"
       id="g41">
      <path
         id="path815-2"
         data-name="path815"
         d="M117.238-801.64a21.912,21.912,0,0,1-30.988,0,21.912,21.912,0,0,1,0-30.988,21.912,21.912,0,0,1,30.988,0l-15.494,15.494Z"
         transform="translate(-77.83 839.05)"
         fill="#4d2c91" />
    </g>
    <path
       id="path817"
       d="M124.155-816.22q0-.128,0-.257-.022.571-.074,1.14Q124.127-815.778,124.155-816.22Zm0-.732q0-.67-.047-1.339Q124.151-817.622,124.154-816.952Zm-.142-2.43q-.06-.544-.148-1.084.087.54.148,1.084Zm-.023,5.135q-.076.542-.179,1.08Q123.913-813.7,123.99-814.247Zm-.328-7.295q-.114-.535-.255-1.064Q123.548-822.077,123.662-821.541Zm-.052,9.451q-.13.532-.286,1.056.156-.525.286-1.056Zm-.513-11.565q-.167-.521-.36-1.034Q122.93-824.177,123.1-823.655Zm-.08,13.673q-.182.516-.391,1.023.208-.507.391-1.023Zm-.693-15.72q-.218-.5-.462-.992Q122.106-826.2,122.325-825.7Zm-.107,17.758q-.233.5-.491.979Q121.984-807.449,122.218-807.945Zm-.866-19.718q-.267-.478-.558-.941Q121.084-828.14,121.352-827.663ZM121.218-806q-.281.47-.586.925Q120.937-805.527,121.218-806Zm-1.03-23.518q-.314-.448-.65-.881Q119.874-829.964,120.188-829.515Zm-.159,25.356q-.327.439-.675.862Q119.7-803.719,120.029-804.159Zm-1.185-27.084q-.357-.415-.734-.811Q118.487-831.658,118.844-831.243Zm-.211,28.83q-.163.179-.33.354Q118.47-802.234,118.633-802.413Zm-.9.929-15.474-15.474L86.782-801.484a21.911,21.911,0,0,0,14.691,6.423l.061,0A21.911,21.911,0,0,0,117.73-801.484Zm-.563-31.511q-.177-.169-.359-.334Q116.99-833.164,117.168-832.995Zm-1.244-1.056q-.423-.348-.862-.675Q115.5-834.4,115.924-834.051Zm-1.775-1.279q-.455-.3-.925-.586Q113.694-835.635,114.149-835.33Zm-1.894-1.1q-.483-.258-.979-.491.5.233.979.491Zm-1.994-.9q-.506-.208-1.023-.39.516.182,1.023.39Zm-2.074-.7q-.525-.156-1.056-.286.532.13,1.057.286Zm-2.133-.487q-.538-.1-1.08-.179Q105.518-838.615,106.055-838.512Zm-2.171-.272q-.437-.046-.875-.074h-.267q.572.022,1.142.074Zm-1.623-.074q-.666,0-1.331.047Q101.6-838.854,102.262-838.857Zm-2.421.141q-.544.06-1.084.148Q99.3-838.656,99.841-838.716Zm-2.16.35q-.535.114-1.064.255Q97.145-838.252,97.681-838.366Zm-2.114.564q-.521.167-1.033.36Q95.045-837.635,95.566-837.8Zm-2.048.772q-.5.218-.992.462Q93.017-836.812,93.519-837.031Zm-1.96.973q-.477.267-.941.558.464-.291.941-.558Zm-1.853,1.163q-.448.314-.881.65.432-.336.881-.65Zm-1.728,1.343q-.415.357-.812.734.4-.377.812-.734Zm-1.586,31.678q-.377-.4-.734-.812Q86.014-802.271,86.392-801.874Zm-.162-30.007q-.171.179-.338.363Q86.059-831.7,86.23-831.881Zm-1.062,1.249q-.348.422-.675.862Q84.82-830.21,85.168-830.632Zm-.2,27.1q-.336-.432-.65-.881Q84.629-803.966,84.965-803.533Zm-1.077-25.325q-.3.455-.586.925Q83.584-828.4,83.888-828.858Zm-.177,23.531q-.291-.464-.558-.941.267.478.558.941Zm-.919-21.638q-.257.483-.491.979.233-.5.491-.979Zm-.149,19.729q-.243-.49-.462-.992Q82.4-807.727,82.643-807.236Zm-.752-17.735q-.208.506-.39,1.023Q81.682-824.465,81.89-824.972Zm-.12,15.729q-.193-.512-.36-1.034Q81.577-809.755,81.77-809.243ZM81.192-822.9q-.156.525-.286,1.057.13-.532.286-1.057Zm-.09,11.572q-.141-.529-.255-1.064Q80.961-811.856,81.1-811.326Zm-.4-9.439q-.1.538-.179,1.08Q80.6-820.228,80.7-820.766Zm-.059,7.3q-.087-.54-.148-1.085.06.544.148,1.085Zm-.213-5.129q-.046.433-.074.868,0,.138,0,.277Q80.38-818.024,80.432-818.6Zm-.027,2.954q-.043-.661-.047-1.323,0,.662.047,1.323Z"
       transform="translate(-60.339 850.862)"
       fill="#b085f5" />
    <path
       id="path824"
       d="M80.358-817.687q0,.129,0,.257.022-.571.074-1.14Q80.386-818.13,80.358-817.687Zm0,.732q0,.67.047,1.339Q80.362-816.285,80.359-816.956Zm.142,2.43q.06.544.148,1.084Q80.561-813.982,80.5-814.526Zm.023-5.135q.076-.542.179-1.08Q80.6-820.2,80.523-819.661Zm.328,7.295q.114.535.255,1.064Q80.966-811.831,80.851-812.366Zm.052-9.451q.13-.532.286-1.056Q81.033-822.349,80.9-821.818Zm.513,11.565q.167.521.36,1.034Q81.583-809.731,81.416-810.252Zm.08-13.673q.182-.516.39-1.023Q81.678-824.441,81.5-823.925Zm.693,15.72q.218.5.462.992Q82.407-807.7,82.188-808.205Zm.107-17.758q.233-.5.491-.979Q82.529-826.458,82.3-825.963Zm.866,19.718q.267.477.558.941Q83.429-805.767,83.162-806.245Zm.134-21.665q.281-.47.586-.925Q83.577-828.381,83.3-827.911Zm1.03,23.518q.314.449.65.881Q84.639-803.944,84.325-804.392Zm.159-25.356q.327-.439.675-.862Q84.811-830.188,84.484-829.749Zm1.185,27.084q.357.415.734.811-.377-.4-.734-.811Zm.211-28.83q.163-.179.33-.354Q86.043-831.674,85.88-831.495Zm.9-.929,15.475,15.474,15.475-15.474a21.912,21.912,0,0,0-14.691-6.423l-.061,0a21.912,21.912,0,0,0-16.2,6.425Zm.563,31.511q.177.169.359.334Q87.523-800.744,87.345-800.913Zm1.244,1.056q.423.348.862.675Q89.012-799.508,88.589-799.856Zm1.775,1.279q.455.3.925.586Q90.819-798.273,90.364-798.577Zm1.894,1.1q.483.257.979.491-.5-.233-.979-.491Zm1.994.9q.506.208,1.023.39Q94.758-796.373,94.251-796.581Zm2.074.7q.525.156,1.057.286Q96.849-795.727,96.325-795.883Zm2.133.487q.537.1,1.08.179-.542-.076-1.08-.179Zm2.171.272q.437.046.875.074h.267Q101.2-795.073,100.628-795.124Zm1.623.074q.666,0,1.331-.047Q102.917-795.054,102.251-795.051Zm2.421-.141q.544-.06,1.084-.148Q105.216-795.252,104.672-795.192Zm2.16-.35q.535-.114,1.064-.255-.529.141-1.064.255Zm2.114-.564q.521-.167,1.033-.36Q109.468-796.272,108.947-796.105Zm2.048-.772q.5-.218.992-.462Q111.5-797.1,110.994-796.877Zm1.96-.973q.477-.267.941-.558Q113.432-798.117,112.954-797.85Zm1.853-1.163q.449-.314.881-.65Q115.256-799.327,114.808-799.013Zm1.728-1.343q.415-.357.812-.734-.4.377-.812.734Zm1.586-31.678q.377.4.734.812Q118.5-831.637,118.121-832.034Zm.162,30.007q.171-.179.338-.363Q118.454-802.206,118.283-802.026Zm1.062-1.249q.348-.423.675-.862Q119.694-803.7,119.345-803.275Zm.2-27.1q.336.432.65.881-.314-.449-.65-.881Zm1.077,25.325q.3-.455.586-.925Q120.929-805.5,120.625-805.05Zm.177-23.531q.291.464.558.941Q121.093-828.117,120.8-828.581Zm.919,21.638q.257-.483.491-.979Q121.979-807.426,121.721-806.943Zm.149-19.729q.243.49.462.992Q122.114-826.181,121.87-826.672Zm.752,17.735q.208-.506.39-1.023Q122.831-809.443,122.623-808.936Zm.12-15.729q.193.512.36,1.034Q122.936-824.153,122.743-824.665Zm.578,13.656q.156-.525.286-1.057Q123.477-811.534,123.321-811.009Zm.09-11.572q.141.529.255,1.064Q123.552-822.052,123.411-822.581Zm.4,9.439q.1-.538.179-1.08Q123.912-813.68,123.809-813.142Zm.059-7.3q.087.54.148,1.085Q123.955-819.9,123.868-820.441Zm.213,5.129q.046-.433.074-.868,0-.138,0-.277Q124.133-815.884,124.081-815.312Zm.027-2.954q.043.66.047,1.323Q124.152-817.605,124.108-818.266Z"
       fill="rgba(126,87,194,1)"
       transform="translate(-60.339 850.864)"
       style="fill:#7e57c2;fill-opacity:1" />
    <g
       transform="matrix(1, 0, 0, 1, 18, 12)"
       filter="url(#path850)"
       id="g46">
      <path
         id="path850-2"
         data-name="path850"
         d="M1375.609-801.381a21.894,21.894,0,0,1-30.968,0,21.91,21.91,0,0,1,0-30.977,21.894,21.894,0,0,1,30.968-.007,21.91,21.91,0,0,1,.01,30.977"
         transform="translate(-1292.41 838.78)"
         fill="#4d2c91" />
    </g>
    <path
       id="path906"
       d="M1549.051-627.882a15.475,15.475,0,0,1-21.888,0,15.486,15.486,0,0,1,0-21.894,15.474,15.474,0,0,1,21.888,0,15.486,15.486,0,0,1,.007,21.894"
       transform="translate(-1452.392 672.742)"
       fill="#b085f5" />
    <path
       id="path946"
       d="M1678.76-498.137a10.674,10.674,0,0,1-15.1,0,10.682,10.682,0,0,1,0-15.1,10.674,10.674,0,0,1,15.1,0,10.681,10.681,0,0,1,0,15.1"
       transform="translate(-1585.496 539.601)"
       fill="#fff" />
  </g>
</svg>
